<?xml version="1.0" encoding="utf-8"?>
<!-- Generator: Adobe Illustrator 15.0.0, SVG Export Plug-In . SVG Version: 6.00 Build 0)  -->
<!DOCTYPE svg PUBLIC "-//W3C//DTD SVG 1.1//EN" "http://www.w3.org/Graphics/SVG/1.1/DTD/svg11.dtd">
<svg version="1.1" id="Layer_1" xmlns="http://www.w3.org/2000/svg" xmlns:xlink="http://www.w3.org/1999/xlink" x="0px" y="0px"
	 width="120px" height="85px" viewBox="0 0 120 85" enable-background="new 0 0 120 85" xml:space="preserve">
<g>
	<polygon fill="#FFFFFF" points="1.446,14.893 6.046,14.893 11.145,23.095 16.244,14.893 20.843,14.893 20.843,34.29 16.603,34.29 
		16.603,21.627 11.145,29.912 11.034,29.912 5.63,21.709 5.63,34.29 1.446,34.29 	"/>
	<rect x="49.839" y="14.893" fill="#FFFFFF" width="4.267" height="19.396"/>
	<path fill="#FFFFFF" d="M58.222,31.463l2.522-3.021c1.745,1.441,3.574,2.355,5.791,2.355c1.746,0,2.799-0.692,2.799-1.829v-0.055
		c0-1.081-0.665-1.635-3.907-2.467c-3.907-0.998-6.428-2.078-6.428-5.93v-0.055c0-3.519,2.826-5.847,6.789-5.847
		c2.826,0,5.236,0.887,7.204,2.466l-2.216,3.214c-1.719-1.192-3.409-1.913-5.043-1.913c-1.636,0-2.494,0.749-2.494,1.691v0.055
		c0,1.275,0.831,1.69,4.185,2.549c3.934,1.025,6.15,2.439,6.15,5.819v0.056c0,3.852-2.938,6.012-7.12,6.012
		C63.516,34.566,60.55,33.542,58.222,31.463"/>
	<path fill="#FFFFFF" d="M77.29,24.647v-0.055c0-5.515,4.351-10.031,10.336-10.031s10.28,4.461,10.28,9.975v0.056
		c0,5.513-4.351,10.03-10.337,10.03C81.585,34.622,77.29,30.161,77.29,24.647 M93.445,24.647v-0.055
		c0-3.326-2.439-6.097-5.876-6.097c-3.435,0-5.818,2.715-5.818,6.041v0.056c0,3.325,2.438,6.095,5.875,6.095
		C91.062,30.687,93.445,27.972,93.445,24.647"/>
	<polygon fill="#FFFFFF" points="101.765,14.893 105.699,14.893 114.788,26.836 114.788,14.893 119,14.893 119,34.29 115.37,34.29 
		105.977,21.959 105.977,34.29 101.765,34.29 	"/>
	<path fill="#FFFFFF" d="M30.663,31.791h9.704l0.037,0.095c0.481,1.221,0.838,2.127,0.95,2.413h4.557l-8.357-19.402h-4.07
		l-8.352,19.402h4.55c0.111-0.286,0.467-1.192,0.944-2.413L30.663,31.791z M38.854,27.94h-6.686l3.353-8.672L38.854,27.94z"/>
	<polygon fill="#FFFFFF" points="42.256,39.576 42.256,59.404 56.396,59.404 56.396,55.213 46.834,55.213 46.834,39.576 	"/>
	<path fill="#FFFFFF" d="M102.15,49.489c0-5.586-4.303-9.799-10.011-9.799h-7.61v19.713h7.61c5.708,0,10.011-4.237,10.011-9.856
		V49.489z M97.833,49.603c0,3.386-2.341,5.751-5.693,5.751h-3.373V43.852h3.373c3.406,0,5.693,2.289,5.693,5.695V49.603z"/>
	<path fill="#FFFFFF" d="M65.353,56.852h9.872l0.038,0.097c0.488,1.243,0.854,2.165,0.966,2.455h4.637l-8.503-19.738h-4.141
		l-8.495,19.738h4.629c0.112-0.29,0.474-1.212,0.96-2.455L65.353,56.852z M73.686,52.935h-6.802l3.411-8.823L73.686,52.935z"/>
	<path fill="#FFFFFF" d="M18.296,49.604c0,6.207,4.309,10.542,10.479,10.542c3.265,0,6.056-1.072,8.296-3.188v-8.854h-7.423v3.765
		h3.54v2.887l-0.059,0.046c-0.86,0.677-2.592,1.148-4.208,1.148c-3.43,0-6.118-2.813-6.118-6.403v-0.059
		c0-3.305,2.598-6.125,5.793-6.287c2.741-0.139,3.821,0.572,5.376,1.594l0.092,0.062l2.339-3.464
		c-1.851-1.6-4.495-2.445-7.657-2.445c-5.958,0-10.451,4.557-10.451,10.6V49.604z"/>
	<path fill="#FFFFFF" d="M54.598,66.95c0-0.091,0.072-0.173,0.173-0.173l3.643-0.001c0.1,0,0.173,0.082,0.173,0.173v0.511
		c0,0.091-0.073,0.173-0.173,0.173l-2.877,0.001v1.857l2.432-0.001c0.092,0,0.173,0.083,0.173,0.174v0.511
		c0,0.1-0.082,0.173-0.173,0.173h-2.432l0,1.958h2.878c0.1,0,0.173,0.082,0.173,0.173l0,0.501c0,0.09-0.073,0.173-0.173,0.173
		l-3.643,0.001c-0.101,0-0.173-0.082-0.173-0.174L54.598,66.95z"/>
	<path fill="#FFFFFF" d="M67.194,66.947c0-0.091,0.082-0.173,0.173-0.173h0.611c0.099,0,0.172,0.081,0.172,0.173l0.001,3.762
		c0,0.91,0.584,1.621,1.513,1.621c0.938,0,1.53-0.702,1.529-1.604v-3.78c0-0.091,0.072-0.173,0.172-0.173h0.611
		c0.091,0,0.173,0.082,0.173,0.173l0.001,3.825c0,1.385-1.047,2.469-2.485,2.47c-1.431,0-2.469-1.085-2.471-2.469V66.947z"/>
	<path fill="#FFFFFF" d="M51.59,67.039c0-0.132-0.108-0.24-0.241-0.24h-0.434c-0.063,0-0.125,0.025-0.169,0.071
		c-0.045,0.044-0.07,0.106-0.07,0.169l0,4.312c0,0.673-0.32,1.076-0.856,1.076c-0.432,0-0.689-0.158-0.987-0.606
		c-0.036-0.054-0.092-0.091-0.157-0.104c-0.061-0.011-0.129,0.002-0.182,0.041l-0.336,0.237c-0.102,0.072-0.132,0.211-0.069,0.318
		c0.38,0.644,0.969,0.983,1.704,0.983c0.494,0,0.916-0.158,1.255-0.475c0.354-0.339,0.543-0.854,0.543-1.489L51.59,67.039z"/>
	<path fill="#FFFFFF" d="M64.733,67.035c0-0.132-0.107-0.239-0.24-0.239H64.06c-0.063,0-0.125,0.025-0.17,0.07
		c-0.045,0.044-0.069,0.104-0.069,0.169v4.313c0,0.353-0.088,0.636-0.252,0.822c-0.146,0.165-0.356,0.253-0.605,0.253H62.96
		c-0.429,0-0.687-0.158-0.984-0.605c-0.035-0.054-0.092-0.091-0.155-0.103c-0.064-0.012-0.129,0.004-0.183,0.04l-0.337,0.236
		c-0.102,0.073-0.131,0.211-0.067,0.319c0.378,0.643,0.967,0.982,1.702,0.982c0.495,0,0.917-0.158,1.256-0.474
		c0.355-0.341,0.544-0.856,0.544-1.489L64.733,67.035z"/>
</g>
</svg>
