<?xml version="1.0" encoding="utf-8"?>
<!-- Generator: Adobe Illustrator 15.0.0, SVG Export Plug-In . SVG Version: 6.00 Build 0)  -->
<!DOCTYPE svg PUBLIC "-//W3C//DTD SVG 1.1//EN" "http://www.w3.org/Graphics/SVG/1.1/DTD/svg11.dtd">
<svg version="1.1" id="Layer_1" xmlns="http://www.w3.org/2000/svg" xmlns:xlink="http://www.w3.org/1999/xlink" x="0px" y="0px"
	 width="120px" height="85px" viewBox="0 0 120 85" enable-background="new 0 0 120 85" xml:space="preserve">
<g>
	<polygon fill="#020202" points="0.982,14.459 5.608,14.459 10.736,22.708 15.864,14.459 20.49,14.459 20.49,33.966 16.225,33.966 
		16.225,21.231 10.736,29.563 10.625,29.563 5.19,21.314 5.19,33.966 0.982,33.966 	"/>
	<rect x="49.65" y="14.459" fill="#020202" width="4.292" height="19.506"/>
	<path fill="#020202" d="M58.081,31.124l2.537-3.038c1.754,1.449,3.594,2.369,5.823,2.369c1.756,0,2.814-0.696,2.814-1.839V28.56
		c0-1.087-0.67-1.644-3.93-2.48c-3.93-1.003-6.465-2.089-6.465-5.963v-0.056c0-3.539,2.842-5.88,6.829-5.88
		c2.843,0,5.267,0.892,7.244,2.48l-2.229,3.232c-1.729-1.198-3.43-1.923-5.072-1.923c-1.645,0-2.508,0.753-2.508,1.701v0.056
		c0,1.282,0.836,1.7,4.207,2.563c3.957,1.032,6.188,2.453,6.188,5.853v0.056c0,3.874-2.955,6.046-7.162,6.046
		C63.404,34.244,60.421,33.214,58.081,31.124"/>
	<path fill="#020202" d="M77.256,24.269v-0.056c0-5.545,4.375-10.088,10.395-10.088c6.021,0,10.341,4.487,10.341,10.032v0.056
		c0,5.545-4.375,10.087-10.396,10.087C81.576,34.3,77.256,29.814,77.256,24.269 M93.502,24.269v-0.056
		c0-3.344-2.451-6.131-5.908-6.131c-3.453,0-5.852,2.731-5.852,6.075v0.056c0,3.344,2.453,6.13,5.908,6.13
		S93.502,27.612,93.502,24.269"/>
	<polygon fill="#020202" points="101.871,14.459 105.826,14.459 114.967,26.47 114.967,14.459 119.203,14.459 119.203,33.966 
		115.553,33.966 106.105,21.565 106.105,33.966 101.871,33.966 	"/>
	<path fill="#020202" d="M30.366,31.453h9.758l0.037,0.096c0.483,1.228,0.843,2.14,0.956,2.427h4.582l-8.404-19.512h-4.093
		l-8.399,19.512h4.576c0.111-0.287,0.47-1.199,0.949-2.427L30.366,31.453z M38.602,27.58h-6.724l3.372-8.721L38.602,27.58z"/>
	<polygon fill="#020202" points="42.024,39.282 42.024,59.223 56.244,59.223 56.244,55.008 46.627,55.008 46.627,39.282 	"/>
	<path fill="#020202" d="M102.258,49.252c0-5.618-4.326-9.854-10.068-9.854h-7.651v19.825h7.651c5.742,0,10.068-4.262,10.068-9.914
		V49.252z M97.916,49.365c0,3.406-2.354,5.785-5.727,5.785h-3.392V43.582h3.392c3.426,0,5.727,2.303,5.727,5.727V49.365z"/>
	<path fill="#020202" d="M65.252,56.656h9.928l0.037,0.096c0.492,1.252,0.859,2.18,0.973,2.471h4.662l-8.551-19.851h-4.164
		l-8.542,19.851h4.655c0.112-0.291,0.478-1.219,0.965-2.471L65.252,56.656z M73.631,52.717h-6.84l3.43-8.873L73.631,52.717z"/>
	<path fill="#020202" d="M17.927,49.367c0,6.242,4.334,10.602,10.54,10.602c3.283,0,6.091-1.078,8.343-3.205v-8.904h-7.466v3.785
		h3.561v2.904l-0.06,0.045c-0.865,0.682-2.606,1.156-4.232,1.156c-3.449,0-6.152-2.83-6.152-6.439V49.25
		c0-3.322,2.613-6.159,5.826-6.322c2.756-0.139,3.843,0.576,5.406,1.604l0.092,0.061l2.354-3.483
		c-1.861-1.609-4.521-2.459-7.701-2.459c-5.991,0-10.51,4.583-10.51,10.662v0.055H17.927z"/>
	<path fill="#020202" d="M54.435,66.813c0-0.092,0.073-0.174,0.175-0.174l3.664-0.002c0.1,0,0.174,0.082,0.174,0.174v0.515
		c0,0.092-0.074,0.174-0.174,0.174h-2.895v1.869h2.445c0.092,0,0.174,0.082,0.174,0.174v0.515c0,0.1-0.082,0.174-0.174,0.174h-2.445
		v1.969h2.896c0.1,0,0.173,0.082,0.173,0.174l0.001,0.504c0,0.09-0.074,0.174-0.174,0.174h-3.664c-0.102,0-0.174-0.082-0.174-0.174
		L54.435,66.813z"/>
	<path fill="#020202" d="M67.104,66.809c0-0.092,0.082-0.174,0.174-0.174h0.615c0.101,0,0.172,0.082,0.172,0.174l0.002,3.783
		c0,0.916,0.586,1.631,1.521,1.629c0.943,0,1.539-0.705,1.537-1.611v-3.801c0-0.092,0.072-0.174,0.174-0.174h0.613
		c0.092,0,0.176,0.082,0.176,0.172v3.848c0,1.394-1.053,2.482-2.5,2.484c-1.439,0-2.482-1.092-2.484-2.481V66.809z"/>
	<path fill="#020202" d="M51.411,66.9c0-0.133-0.109-0.24-0.241-0.24h-0.438c-0.063,0-0.125,0.025-0.17,0.07
		c-0.046,0.045-0.071,0.106-0.071,0.17l0.001,4.338c0,0.676-0.321,1.08-0.861,1.08c-0.434,0-0.693-0.158-0.993-0.609
		c-0.035-0.055-0.092-0.092-0.157-0.104c-0.062-0.013-0.13,0.002-0.183,0.041l-0.339,0.237c-0.103,0.072-0.132,0.214-0.069,0.32
		c0.383,0.647,0.975,0.987,1.715,0.987c0.496,0,0.921-0.157,1.262-0.477c0.356-0.34,0.546-0.859,0.546-1.498L51.411,66.9z"/>
	<path fill="#020202" d="M64.629,66.896c0-0.133-0.107-0.24-0.242-0.24h-0.436c-0.064,0-0.125,0.025-0.172,0.07
		c-0.045,0.045-0.068,0.104-0.068,0.17v4.338c0,0.354-0.088,0.639-0.254,0.826c-0.148,0.166-0.357,0.254-0.609,0.254h-0.002
		c-0.432,0-0.691-0.158-0.99-0.607c-0.035-0.055-0.094-0.092-0.155-0.104c-0.063-0.013-0.132,0.004-0.185,0.039l-0.338,0.237
		c-0.104,0.074-0.133,0.213-0.068,0.322c0.379,0.646,0.974,0.987,1.711,0.987c0.498,0,0.923-0.16,1.265-0.477
		c0.356-0.344,0.547-0.861,0.547-1.498L64.629,66.896z"/>
</g>
</svg>
